PathFileType	4	(X/Y/Z)	/Users/niels/Desktop/University/Third Semester/Perception and Action/Exam/Gymnastics Motion Tracking/Code for Gym Tracking/Analyzed Data/Webcam_Backflip/id7_1_baseline_Sports2D/id7_1_baseline_Sports2D_px_person00.trc
DataRate	CameraRate	NumFrames	NumMarkers	Units	OrigDataRate	OrigDataStartFrame	OrigNumFrames
29.708737864077673	29.708737864077673	9	22	m	29.708737864077673	64	103
Frame#	Time	Hip			RHip			RKnee			RAnkle			RBigToe			RSmallToe			RHeel			LHip			LKnee			LAnkle			LBigToe			LSmallToe			LHeel			Neck			Head			Nose			RShoulder			RElbow			RWrist			LShoulder			LElbow			LWrist		
		X1	Y1	Z1	X2	Y2	Z2	X3	Y3	Z3	X4	Y4	Z4	X5	Y5	Z5	X6	Y6	Z6	X7	Y7	Z7	X8	Y8	Z8	X9	Y9	Z9	X10	Y10	Z10	X11	Y11	Z11	X12	Y12	Z12	X13	Y13	Z13	X14	Y14	Z14	X15	Y15	Z15	X16	Y16	Z16	X17	Y17	Z17	X18	Y18	Z18	X19	Y19	Z19	X20	Y20	Z20	X21	Y21	Z21	X22	Y22	Z22
64	2.154248366013072	0.8719235276193822	-0.4719653780422861	0.0	0.8738987621608573	-0.47134318155649507	0.0	0.8971380638507551	-0.7099751050380728	0.0	0.8627694923156293	-0.942242359178347	0.0	0.9698595546443298	-0.9741834946530481	0.0	0.9513008273193234	-0.9859767086860938	0.0	0.8409903092516775	-0.976292640064882	0.0	0.8785655903054258	-0.4715322984180112	0.0	0.8951085245807209	-0.6956810242999514	0.0	0.8661620326661759	-0.9094724781605428	0.0	0.9635490251930324	-0.9359815471627021	0.0	0.9533348542289264	-0.9329962492165168	0.0	0.8304854407522436	-0.9352871659884004	0.0	0.8757385072241459	-0.13244705602666657	0.0	0.9265473354799363	0.016743586408669027	0.0	0.9388890886307226	-0.07603216658813547	0.0	0.8551979124058328	-0.178025888890641	0.0	0.9888399781272501	-0.2753397628085657	0.0	1.1560094191413242	-0.2831690355985054	0.0	0.8690481763678011	-0.17712306873587103	0.0	0.980176855769925	-0.28035841481043716	0.0	1.1103489157754112	-0.293609556597512	0.0
65	2.187908496732026	0.8703318317203885	-0.473568513679316	0.0	0.8729242571677454	-0.47269842137099194	0.0	0.9009600376844538	-0.7102624627830899	0.0	0.8634742298192947	-0.9423287091153039	0.0	0.9699254538248505	-0.9744659484351526	0.0	0.9510767052120139	-0.9859465057033948	0.0	0.8410423277121366	-0.9759285817467573	0.0	0.8764587690911901	-0.4727091287173166	0.0	0.8969931983142714	-0.6969797499310125	0.0	0.866851394720932	-0.9108439930128873	0.0	0.964228224830718	-0.9367987609013742	0.0	0.953466917956258	-0.9337733326067565	0.0	0.8306992313352431	-0.9364695130885408	0.0	0.8781936985230663	-0.13370245615299528	0.0	0.9312853374410313	0.013623238285506574	0.0	0.9414761432596526	-0.07849151266316468	0.0	0.8594231990172183	-0.17919824183153846	0.0	0.9844899309863215	-0.28838020687010546	0.0	1.1458047771331872	-0.3206945196024993	0.0	0.866395698400985	-0.17812644835000463	0.0	0.97546602280415	-0.29135951740720856	0.0	1.1168284816337053	-0.3217378788907031	0.0
66	2.2215686274509805	0.8696670978378488	-0.4758279005302402	0.0	0.872920485269359	-0.47487362208728806	0.0	0.9065502687351722	-0.7107377795703134	0.0	0.8645170460400261	-0.9425789525135905	0.0	0.9701419028188641	-0.974900030993691	0.0	0.950783541686477	-0.9860618736634934	0.0	0.841189383828827	-0.9755215082285997	0.0	0.8743494459409961	-0.4746382383557495	0.0	0.9001179650672847	-0.698770912689588	0.0	0.868203755235399	-0.912096916196299	0.0	0.9655218439885808	-0.9378371943011999	0.0	0.9537440381657363	-0.9345035228977177	0.0	0.8312441762728117	-0.9376745967890167	0.0	0.8811059087670622	-0.1354601753948483	0.0	0.9363359925611721	0.009593072957164689	0.0	0.9443577356719492	-0.08160498270822951	0.0	0.8640160769095643	-0.18085905210792358	0.0	0.9777539429513388	-0.3038841454080063	0.0	1.1297703226310079	-0.36045126771815705	0.0	0.8626972197280934	-0.17948551064483564	0.0	0.9686282203747348	-0.30373262593748235	0.0	1.1107916071628134	-0.3524089048983403	0.0
67	2.2552287581699346	0.8702407824111753	-0.47911196894141694	0.0	0.8739160753919147	-0.47818236539049885	0.0	0.913440733733368	-0.7117177687563693	0.0	0.8657287419117321	-0.9430002003373422	0.0	0.9707626398679726	-0.9754580505654867	0.0	0.9507675581766157	-0.9863379270575473	0.0	0.8413603379767154	-0.9751642560254143	0.0	0.8730294207702045	-0.4777119983028045	0.0	0.9051333688267224	-0.7011408769412065	0.0	0.870267250343941	-0.9134311791974853	0.0	0.968349133391806	-0.9394501600928226	0.0	0.9552380031621508	-0.9355635635757242	0.0	0.8326004023377057	-0.9389644462181909	0.0	0.8842635582339721	-0.1379814123474078	0.0	0.9413116986420715	0.00491666896710936	0.0	0.9475305535319222	-0.08534110162765982	0.0	0.8682409570181489	-0.18317574979636464	0.0	0.9682687745865618	-0.32110255836384977	0.0	1.1075452421777747	-0.4010699685721074	0.0	0.8591936781630587	-0.1814155262471851	0.0	0.959761111208888	-0.3168871975033463	0.0	1.0934549990195734	-0.38537400666841326	0.0
68	2.2888888888888888	0.8723877108867941	-0.48355278068839397	0.0	0.8758485194686865	-0.48272364507830606	0.0	0.9209206359676051	-0.7133874893847929	0.0	0.8668980646808615	-0.9434676675209279	0.0	0.971834974857781	-0.9761174278475496	0.0	0.951198056666397	-0.9867674204426199	0.0	0.8414884609951391	-0.9748513929530509	0.0	0.8735955346946461	-0.4819845266402465	0.0	0.9123788497751664	-0.7039850210388746	0.0	0.8729523351281577	-0.914903657566129	0.0	0.9729879073957076	-0.9418108430807598	0.0	0.9586766407555657	-0.9371844101206563	0.0	0.8350471384266843	-0.9402653938756452	0.0	0.8873287213378743	-0.1414237934043607	0.0	0.9458449074287378	-0.00010858078500524259	0.0	0.95096075031393	-0.08962750050300278	0.0	0.8712097031350394	-0.1862935230513169	0.0	0.9552493326389867	-0.3387797371985324	0.0	1.078403219117725	-0.44066004041474766	0.0	0.8573470305880833	-0.18405813803233723	0.0	0.9484437421839153	-0.33005409552254406	0.0	1.0660454830527786	-0.4189375975787464	0.0
69	2.322549019607843	0.8763909165543207	-0.4888452404009555	0.0	0.8787239462665634	-0.4882617421016154	0.0	0.9283670985826578	-0.7156884621336129	0.0	0.8678511052124098	-0.9438093412598263	0.0	0.9730116876503137	-0.9769965649382147	0.0	0.9518699247929471	-0.9874509493154734	0.0	0.8415681876897598	-0.9744190096676196	0.0	0.8770387156955555	-0.48706951422980216	0.0	0.9213004200393772	-0.7070590708446188	0.0	0.8759505476147594	-0.9163612743603844	0.0	0.9785316557953568	-0.944897281465263	0.0	0.963602435101044	-0.9393914489788732	0.0	0.8382329564732786	-0.9414592448031253	0.0	0.8899419125273881	-0.14566735459659186	0.0	0.9497349833920472	-0.005257713609405343	0.0	0.9545814118731674	-0.09430808649218911	0.0	0.8723388147116693	-0.19020155969386662	0.0	0.9379502316175853	-0.3552641424943285	0.0	1.0418554663733188	-0.4768551205701597	0.0	0.8580143619247982	-0.18744331307764564	0.0	0.9341656709623464	-0.3423850651834826	0.0	1.030407890552735	-0.45042977904525017	0.0
70	2.3562091503267975	0.8822009399592741	-0.494173521870304	0.0	0.8826730346105811	-0.4940463577081769	0.0	0.9354256996019021	-0.7182777873488417	0.0	0.8685194501937429	-0.9439091442095248	0.0	0.973748541154972	-0.9782382977762951	0.0	0.9523618823200276	-0.9885241151851264	0.0	0.8416693242331	-0.973679744344123	0.0	0.8834672767985363	-0.4921306926451574	0.0	0.9304742760480477	-0.7100476006930795	0.0	0.8787125631473699	-0.917635608401506	0.0	0.9832755442712077	-0.9485496615059744	0.0	0.9684355611954513	-0.9421327954317095	0.0	0.8413047591969238	-0.9425809960341692	0.0	0.8919136685102904	-0.15029908438588052	0.0	0.9530391705729679	-0.010347317770821693	0.0	0.9582929505963683	-0.0991666406839934	0.0	0.8717392805576905	-0.19463422441025743	0.0	0.9165170288122847	-0.36885742235976204	0.0	0.998489233592536	-0.5071829646584588	0.0	0.8608876434312607	-0.19141557840214665	0.0	0.9167740502424867	-0.3530658928177308	0.0	0.9895207106325381	-0.4771970040659413	0.0
71	2.3898692810457516	0.8892439727783918	-0.4983830593729741	0.0	0.8876956410797804	-0.4987981653210914	0.0	0.9419044598167124	-0.7205647051232926	0.0	0.8689300256494525	-0.9437496972519546	0.0	0.9737526696176712	-0.9797483738320257	0.0	0.9523950453172847	-0.9899602810597204	0.0	0.8418725274862061	-0.9726683383610985	0.0	0.8918355460018782	-0.4960645055880052	0.0	0.9384035576967509	-0.7125701186998499	0.0	0.8806420473035124	-0.9187455034005593	0.0	0.9859239313761828	-0.9524441630580318	0.0	0.9716672373675517	-0.9453155456633165	0.0	0.8435829770594526	-0.9438346090420947	0.0	0.8933746615343499	-0.15474174007496128	0.0	0.9560951768170642	-0.015134088793365204	0.0	0.9619379670841166	-0.10395282151230102	0.0	0.8699954595880904	-0.19900635402698688	0.0	0.8921712591112219	-0.37826218228843095	0.0	0.9501528223920352	-0.5294964907336239	0.0	0.8649101032780618	-0.19556920423841562	0.0	0.8967276935346047	-0.36142959189259555	0.0	0.9466211763812172	-0.4972988836358142	0.0
72	2.4235294117647057	0.8964654149636225	-0.5004446481025212	0.0	0.8933237956965678	-0.5011582680527865	0.0	0.9475137033064839	-0.7218898021419661	0.0	0.8691412205296157	-0.943371718449754	0.0	0.9731647381163753	-0.9811832440891315	0.0	0.9519726464602464	-0.9915282252404641	0.0	0.8421883825505466	-0.9716376667376259	0.0	0.9004412951140579	-0.4979242689988744	0.0	0.9442613032363982	-0.714188186736819	0.0	0.8814590561503194	-0.919725571973988	0.0	0.9861970033167498	-0.9559741989094898	0.0	0.972659776307096	-0.9485797248432003	0.0	0.8448734966987177	-0.9452700125501247	0.0	0.8946944583461579	-0.15845384939240978	0.0	0.9594397499153454	-0.019308310208245274	0.0	0.9652743795673543	-0.10837101263024213	0.0	0.8677275259527122	-0.20248891891327242	0.0	0.8666108015223455	-0.38284986347412503	0.0	0.8993375387469043	-0.5424226477826471	0.0	0.8692073088277451	-0.1993341402365545	0.0	0.8752235499352472	-0.36705006283817526	0.0	0.904246076040266	-0.5099059937488821	0.0
